<svg xmlns="http://www.w3.org/2000/svg" viewBox="0 0 192.15 178.04"><defs><style>.cls-1,.cls-20,.cls-21,.cls-22,.cls-23{fill:#1d1d1b;}.cls-2{fill:#e30613;}.cls-3{fill:#de0b15;}.cls-4{fill:#c71618;}.cls-5{fill:#ad1917;}.cls-6{fill:#5d2714;}.cls-7{fill:#919090;}.cls-8{fill:#fff;}.cls-9{fill:#e17d0b;}.cls-10{fill:#f18700;}.cls-11{fill:#ab1917;}.cls-12{fill:#853312;}.cls-13{fill:#451e10;}.cls-14{fill:none;stroke:#a71916;}.cls-14,.cls-18,.cls-20,.cls-21,.cls-22,.cls-23{stroke-miterlimit:10;}.cls-15{fill:#e52d1e;}.cls-16{fill:#db7110;}.cls-17{fill:#f18a00;}.cls-18,.cls-24{fill:#332f2c;}.cls-18{stroke:#332f2c;}.cls-19{fill:#d6cece;}.cls-20,.cls-21,.cls-22,.cls-23{stroke:#1d1d1b;}.cls-20{stroke-width:0.25px;}.cls-22{stroke-width:0.75px;}.cls-23{stroke-width:0.5px;}</style></defs><title>Fichier 3</title><g id="Calque_2" data-name="Calque 2"><g id="bfom"><path class="cls-1" d="M93.77,141.61,90.33,140l-13.18-5.85L62.07,140l.65,1.09s13.73-.76,15.2.38c2.92-.91,12.85-.49,12.85-.49Z"/><path id="ensemble" class="cls-2" d="M187.69,63.1a28.44,28.44,0,0,0,.6-7.91c-.3-2.12-3.33-6.1-6.91-5.79.27-1.28,1.42-5.58-3-6.71-3.74-.68-19.18,8-20.66,9.33-.81,1-3.63.78-3.88,4.38,0,2.87,1.26,5.62,1.5,6.59s1.41,9-1.66,16-8.09,10.4-19,10.8a15,15,0,0,1,.2-3,5.58,5.58,0,0,0,1.5.77c.52.08,1.29-.45,1.69-1.54s-.2-13.55-.85-16.3c1.06.41,2.11.57,2.39-.12S139.4,60.4,136.49,53a16.81,16.81,0,0,0,.76-6.55,168.61,168.61,0,0,0-5.78-16.09c1.58-.81,4.69-2.22,5.42-3.8-.81-.12-7.16-1.42-9.14-2.06,4.41-3.16,11.24-7.6,12.21-13.1-4.61,3-11.44,5.9-14.23,6.51-.53-1.18-3.6-8.53-7-11.57,0,0-15.06,19.7-14.42,20.39s2.67.95,3.71.85a40.73,40.73,0,0,1-.58,10.73c-1.17,4.27-2.62,6.88-3.56,9.43-.28,1.33-.34,2.45.18,3s2.61-.49,2.76-.58,0,.91-.24,1.43,3.84,9.44-1.49,13.68c-.4.82-6.1-5.25-3.61-4.4-1.12,2.46-8.85,8-10.58,9.35-.79.85-1.64-.62-1.16-.25-.42.27-26.53,7.55-35.87,13.55,0,0,4.22-9.86,5.92-15.08s3.76-11.1,4.25-19.83C64,43,62.45,34.59,58,30.53c-1.1-1-1.65-.08-1.54.62a23.48,23.48,0,0,1,1.58,4.13A38.26,38.26,0,0,1,58,42.45c-.35-.59-4.42-7.67-7-10.19s-7.8-7.4-16.53-7.4S17.56,26.5,12.13,31.59c-.18.94.88,1.49,1.58,1.73A23.21,23.21,0,0,0,19,33.08a49.8,49.8,0,0,0-15,21C-1.32,68,.07,75.36.45,78.36a.79.79,0,0,0,1.31.06c.24-.37,2.73-3.79,3.33-4.88,0,1.21-.41,7-.39,9.06s-.21,6.57,3.43,7.93c1.78,0,2.78-2.12,3.35-3.21,1.95,3,3.92,6.56,7.75,7.84,2.09,0,1.21-9,1.33-10.34s4.25-16.59,14.07-15.68c3.64.48,3.79.39,3.91.51-.51.34-2.85.52-4.49,1.94-1.15,1.13,3.49,1.82,4.25,2.1s3.89,1.59,6.2,8.23a23.29,23.29,0,0,1,1.57,8s-6.28,6.73-6.28,18.47c0,10.22,5.21,15.74,9.94,21.5,4.55,4.37,14.26,9.89,27.66,10.8.49,2.67,1.46,6.31,1,23.89a46.79,46.79,0,0,0-7.16-.54c-2.54.36-4,1.09-4.48,2.18s1,1.82,1.76,2.06,3.27-.85,4-.85,4.67-.36,5.76.07a2.62,2.62,0,0,1,1.76,2.42c.12,1.21,1,5.82,1.88,7.34s2.06.55,2.18.12a28.37,28.37,0,0,0,.06-4.67c-.12-.85-1-3.39-1-3.64s.91-.06.91-.06a31.07,31.07,0,0,1,3.88,3.7c1,1.34,1.58,2,1.82,2.06a3.45,3.45,0,0,0,2,0c.54-.3.78-1.09.36-2.24a13.19,13.19,0,0,0-5.46-5.34c1.27-.18,5.1,1.46,6.37,2.25a3.76,3.76,0,0,0,2.85.54c.3-.24.24-4.49-7.16-5.21,1.22-.49,1.76-1.51,3.4-1.33s3.6,1.39,4.18,1.48a13.74,13.74,0,0,0,3-.18c.63-.13,3.1-1.41,4.34-1.59a4.07,4.07,0,0,1,4.46,2.15c1.07,1.66,1.31.74,1.49.68a2.53,2.53,0,0,0,.6-1.48c.46-.46,1.49.24,2,1s1.76.63,1.46-1c.18-.13.93-1,1.23-.49s1,.63,1.26.11.6-2.27-1.89-3c-1.39-.24-1.51-.42-1.87-.36a2.53,2.53,0,0,1-1,0,7.12,7.12,0,0,0-2.16-.35c-1.31,0-1.82.05-2.18.05s-1.21-.51-1.4-.51a8,8,0,0,0-2.63.08c-1,.31-4.92,1.88-5.92,1.82,1.28-6.85,3.4-6.55,3.16-25.23,11-4.79,22.62-19.89,25-24.44.2.09,5.36-10.41,15.6-13.85,11.62-3.91,18.58-10.88,22.1-8.56,1-.24,11.09-.7,9.48-.73.94-.48,20-9.37,19.65-18.1C192.14,68.29,192.57,65.86,187.69,63.1ZM94,161.39a7.78,7.78,0,0,0-4.49-1.7,5.55,5.55,0,0,0-4.56,3.16v2.55l-3.78-.23s1.39-16.9,1-24.58c0,0,9.4.12,13.22-2C96.07,140.65,97.65,150.47,94,161.39Z"/><path id="cou_2" data-name="cou 2" class="cls-3" d="M89.7,69.93a21.34,21.34,0,0,0,8.92-.31c-2.25,1.88-4.43,5.64-2.91,7.52s7.58-1.45,7.58-1.45-1.09,5.94,1.21,6.61,6-3,6-3-1,6.43-.43,7.09,6.49.12,8.25-4.06c.43,1.39,1.7,4.85,2.73,5.22a4.29,4.29,0,0,0,4.85-2.61c.39.4,4.15,4.16,6.29,1.53,1-1.61,1.5-1.82,1.86-1.65s1.7,2.54,2.26,2.67a2.21,2.21,0,0,0,2.07-2.11c.08-1.45-.29-13.12-1.44-17.24s-31.66-10.37-31.66-10.37l-3.52,2.73-.48,1A16.42,16.42,0,0,1,92,69.13C90.9,70.52,89.22,69.5,89.7,69.93Z"/><path id="cou" class="cls-4" d="M107.25,49.65s-2.82,3.89-1.25,4-.73,6.54-.2,6.26c.16.44-.45,4.2.72,4.89s4.86-1,5.38-1.78c.37.85.81,3.8,1.9,4.13s4-.69,5.1-3c.32,2.07.81,4.45,1.86,4.9s3.47-2.47,3.92-4c.24,1.42,1.54,4.86,2.51,5s3.15-3.07,3.35-4c.57,1,2.06,4.28,3.2,3.88a3.1,3.1,0,0,0,1.9-2.15c.08-.6,2.22,2.27,2.87,2.31a1.49,1.49,0,0,0,1.37-1.7s-1.66-12.78-3.6-16.33-21.91-6.72-21.91-6.72Z"/><path id="visage" class="cls-5" d="M106.87,50.09c-.15.09-2.25,1.1-2.76.58s-.46-1.64-.18-3c.94-2.55,2.39-5.16,3.56-9.43a40.73,40.73,0,0,0,.58-10.73L104.74,13.3l2-5.74,3.82-2.89L115.25,4S118.82,6.3,119,6.45s5.68,6.52,10.45,19.22c5.12,11.5,7,17.57,7.42,19.57s1.27,6.43-1.76,8.49c-2.91.37-3.52-2.12-4.67-3.21-1.27,1.33-.36,4.67-3,5.34s-3.94-4.25-4.49-5.16c-.42,1.82-.55,5.7-3.09,6.49s-2.67-4.43-2.73-5.34a6.67,6.67,0,0,1-6,3.82c-3.09.12-1.33-6.43-1.15-7.21S107,50,106.87,50.09Z"/><path id="haut" class="cls-2" d="M118.78,6.3S113.91,2.74,111,3.64c-5.18,1.61-9.6,8.17-8.05,8.51-.47.26-4,1.43-4,2.71s1.21,3.06,4.69,3.11c-.75.6-2.59,1.94-2.59,3.07s1.35,2.44,3.79,2.34c-.18.33-1.14,2.62-.5,3.31s2.67.95,3.71.85c0,0-2.11-10.74-1.2-16.26a7.3,7.3,0,0,1,8.49-6.19A8.06,8.06,0,0,1,118.78,6.3Z"/><path class="cls-6" d="M120.24,13.13c.63,2,.55,3.82-.17,4s-.85-1.31-1.47-3.32-1.5-3.73-.78-3.95S119.62,11.12,120.24,13.13Z"/><path class="cls-6" d="M115.33,13.55c.62,2,.54,3.81-.18,4s-.84-1.31-1.46-3.32-1.51-3.73-.79-3.95S114.71,11.54,115.33,13.55Z"/><path id="glotte" class="cls-2" d="M123.67,30.14s-2.49,5.15-1.7,9.28c.91,3.27,3.82,1,4.73-2.31.24,1.52,1.15,3.46,1.64,3.64s2.3,1,2.36-2.12-1.82-8.25-1.82-8.25Z"/><circle class="cls-7" cx="126.98" cy="18.26" r="2.74"/><path class="cls-8" d="M125.42,16.18a3,3,0,0,0-.12,4,2.7,2.7,0,0,0,3.43-.14S124.7,20.22,125.42,16.18Z"/><path class="cls-7" d="M122.56,13.6a2.74,2.74,0,1,0,4-2.66,2.69,2.69,0,0,0-1.49-.3A2.74,2.74,0,0,0,122.56,13.6Z"/><circle class="cls-7" cx="123.51" cy="8.48" r="2.74"/><circle class="cls-7" cx="123.15" cy="8.4" r="2.74"/><path class="cls-8" d="M122.11,6.49A2.63,2.63,0,0,0,121,10.05a2.85,2.85,0,0,0,3.37.66S120.44,9.94,122.11,6.49Z"/><path class="cls-8" d="M124.33,11.47a2.49,2.49,0,0,0-1.08,3.43,2.92,2.92,0,0,0,3.36.64S122.66,14.79,124.33,11.47Z"/><path id="bec_bas" data-name="bec bas" class="cls-9" d="M127.58,24.32A26.4,26.4,0,0,0,137.16,26c-1,1.1-1.88,3.4-7.61,4.67s-9.76-3.21-11.43-5.61C119.24,23.8,127.58,24.32,127.58,24.32Z"/><path id="bec_hat" data-name="bec hat" class="cls-10" d="M139.93,11.28c-1,5.5-7.81,10-12.21,13.1,0,0-2.84,1.74-9.15,1.13a14,14,0,0,1-3.22-5.09C129.43,17.9,135.32,14.23,139.93,11.28Z"/><path id="queue" class="cls-11" d="M34.63,69.14c-9.82-.91-14,14.31-14.07,15.68s.76,10.34-1.33,10.34c-3.83-1.28-5.8-4.88-7.75-7.84-.57,1.09-1.57,3.26-3.35,3.21-3.64-1.36-3.42-5.9-3.43-7.93s.39-7.85.39-9.06c-.6,1.09-3.09,4.51-3.33,4.88a.79.79,0,0,1-1.31-.06C.07,75.36-1.32,68,4,54.09a49.8,49.8,0,0,1,15-21,23.21,23.21,0,0,1-5.24.24c-.7-.24-1.76-.79-1.58-1.73,5.43-5.09,13.52-6.73,22.26-6.73a39.61,39.61,0,0,1,8.45,1.62c-1.62-.12-7.4-.53-9.18-.08.93.32,8.65,3.52,12.66,7.16-1.5,0-13.43,1.33-18.24,4.77,1.54.08,7.56,0,11.73,2.5-1.7.49-10.56,1.86-14.2,5.1,1.9.16,9.55.28,12.78,1.66-1.21.4-9.58,2.34-12.61,6.14,1.82.12,9.13.37,9.13.37S27,57.21,24,60.93c2.42,0,8.85-.2,12.45,0-1.66.53-6.19,1.21-9.91,4.89,1.82,0,8.54-.48,12.46.49C38.47,66.55,36,67.4,34.63,69.14Z"/><path id="main" class="cls-3" d="M122.61,106.72c13.9-6,12.14-16.5,12.14-16.5,10.87-.41,15.89-3.8,19-10.8s1.9-15,1.66-16-1.54-3.72-1.5-6.59c.16-2.31,10.25-8.22,17.44-11.57,4-1.87,7.13-2.94,7.1-2.14,4.39,1.13,3.24,5.43,3,6.71,3.58-.31,6.61,3.66,6.91,5.79a28.44,28.44,0,0,1-.6,7.91c4.88,2.76,4.45,5.19,4.45,7.74.32,7-13.26,14.58-18,17.17a16.15,16.15,0,0,1-3.41,1.35c-4.82,1.33-7.71,3.94-7,4.6"/><path class="cls-12" d="M169.54,37.21s-4.71-12.4-8.37-12.71a2.32,2.32,0,0,0-2.1,2.39l-.78.87s.28,1.12-1.12,1c0,0-2.1-2.48-2.69-.4,0,0-.41-.59-.75-.46s-2.29,1.34-3,1.78h0s-3.09,1.57-3.37,1.8,0,.87,0,.87c-2.08-.57-1.05,2.52-1.05,2.52-.67,1.22-1.48.41-1.48.41l-1.15.21a2.33,2.33,0,0,0-3.13.57c-1.63,3.29,6.54,13.74,6.54,13.74,2.77,2.07,3.57-1.83,3.57-1.83,1-.28.55-1.26.79-1.29s1.09-.32,1.09-.32c2.93,3,2.27.32,2.77.81s.93-.21,1.5,0,1.84,4.07,1.84,4.07l2.92-1.9h0l3.21-1.55s-2.66-3.08-2.53-3.68.93-.61.77-1.29,1.8,1.28.75-2.78c0,0,.68-.59.83-.78s.78.68,1.52,0C166.13,39.32,169.88,40.66,169.54,37.21Z"/><path class="cls-13" d="M156.81,47.22s.72.77,1.84,4.07l6.14-3.44s-6.28,1.24-8-.63"/><path class="cls-13" d="M147.58,32.79s6.5,13.57,6.92,13.6S148.61,36.93,147.58,32.79Z"/><polygon class="cls-13" points="170.99 57.47 172.03 59.09 166.9 63.53 165.31 61.17 170.99 57.47"/><path class="cls-12" d="M184.67,81.45l.09.13L188,86.7l.09.15a3.36,3.36,0,0,1-.1.94c-.28,1.16-1.31,3-5.05,2.44l-4.34-6.31Z"/><path class="cls-13" d="M185,86.08a10.43,10.43,0,0,0-3.86,1.39l-2.53-3.87,6.16-2.31L188,86.77a3.12,3.12,0,0,1-.36,1.57S187.24,85.93,185,86.08Z"/><path class="cls-14" d="M173.21,59.09s-8.42,5.09-7.4,8.77a2.12,2.12,0,0,0,2.29,1.43c4.37-.49,9.8-4.14,12.66-5.56"/><path class="cls-14" d="M174,67.37s-7.19,5.56-6.05,9.28A2,2,0,0,0,170.1,78c4.29-.65,9.67-4.37,12.68-5.51"/><path class="cls-14" d="M178.21,74.77s-6.65,5.4-5.44,9.09a2.18,2.18,0,0,0,2.33,1.39c4.6-.6,10.83-4.79,12.94-7.25"/><path class="cls-14" d="M155.19,54.21c3.72-3,12.5-8,19.21-7.81a2.33,2.33,0,0,1,2,1.21c2.62,5.29-11.65,13.24-11.65,13.24"/><path id="bas" class="cls-15" d="M49.73,129.85c4.55,4.37,14.26,9.89,27.66,10.8,0,0,13,1,22.87-4.13,11-4.79,22.62-19.89,25-24.44,0,0,2.52-3,2.64-3.84s.33-5.1-4.24-3.84a3.15,3.15,0,0,0-1-2.79c-.73-.45-4.09-.85-7.56,1.61-1.3.13-1.3,0-2-1s-1.34-3.59-4.94-3.43c-.12,2.06.57,16.29-16.17,24.06s-25.56,5.66-32.27,4.61a25.52,25.52,0,0,1-4,.32,32.92,32.92,0,0,0-3.64-.32C51.45,127.57,50.52,128.09,49.73,129.85Zm32.39,10.74s9.4.12,13.22-2"/><path id="patte_2" data-name="patte 2" class="cls-16" d="M95.28,138.46a41,41,0,0,0,4.86-1.88c1-.6.68,15.78-3,24.69,1.58.24,4.79-.91,5.7-1.46a4.28,4.28,0,0,1,4.07.37,1.08,1.08,0,0,0,1,0,2.83,2.83,0,0,1,1.83-.25,7.41,7.41,0,0,1,1.74.61,2.58,2.58,0,0,0,1.26.08,3.81,3.81,0,0,1,1.68.14,3.57,3.57,0,0,1,1.73,1,5.54,5.54,0,0,1,.6,3.22c-.2.36-.92.58-1.9.07a.53.53,0,0,0-.75.28c-.22.6-.63,1.13-1.35,1-1-.12-2.06-1.69-2.06-1.69a7.85,7.85,0,0,1-.73,1.94c-.24.12-1.15.12-2.06-.85s-2.18-2.49-2.61-2.55a9.61,9.61,0,0,0-3.09.67,11.81,11.81,0,0,1-2.43,1.27,30.49,30.49,0,0,1-4.06,0c-.73-.12-3.28-1.39-3.82-1.45a10.18,10.18,0,0,0-3.16,1c-.73.36-3.87.21-3.87.21a1.78,1.78,0,0,1-.31-.49,2.54,2.54,0,0,1,.62-2.88,8.47,8.47,0,0,1,3.62-1.82A6.63,6.63,0,0,1,94,161.39C94.54,159.52,97.89,149,95.28,138.46Z"/><path id="patte_1" data-name="patte 1" class="cls-17" d="M77.39,140.65c.49,2.67,1.46,6.31,1,23.89a46.79,46.79,0,0,0-7.16-.54c-2.54.36-4,1.09-4.48,2.18s1,1.82,1.76,2.06,3.27-.85,4-.85,4.67-.36,5.76.07a2.62,2.62,0,0,1,1.76,2.42c.12,1.21,1,5.82,1.88,7.34s2.06.55,2.18.12a28.37,28.37,0,0,0,.06-4.67c-.12-.85-1-3.39-1-3.64s.91-.06.91-.06a31.07,31.07,0,0,1,3.88,3.7c1,1.34,1.58,2,1.82,2.06a3.45,3.45,0,0,0,2,0c.54-.3.78-1.09.36-2.24a13.19,13.19,0,0,0-5.46-5.34c1.27-.18,5.1,1.46,6.37,2.25a3.76,3.76,0,0,0,2.85.54c.3-.24.24-4.49-7.16-5.21a40,40,0,0,1-7.28,0c.37-2.55,1-20.75.73-24s-.73-9.77-.73-9.77-4.79,1-5.51,1.09C76,132.76,77.39,140.65,77.39,140.65Z"/><path class="cls-18" d="M136.49,53s-15.16,9.21-31,.07c0,0,.43,6.33-13,13.56-.38.45-1-.83-3.44,1.27-5.12-.09-.74.75-15.11,6-31.61,11.67-34.56,26.44-34.56,26.44s-2.83,36-1.51,39.24,10.76.33,15.3,0S78.31,132.2,94,141.11c0,0,21.69,6,26.51-11.49s16.37-31.72,16-34.46C136.49,95.16,144.62,70.73,136.49,53Z"/><path class="cls-8" d="M123.33,57s13.12-3.66,13-4.86,11.23,8.94,7.48,21.42-1.7,10-1.94,12,.22,3.78-9.43,3-1.35-5.33-13.45-1.67S123.33,57,123.33,57Z"/><path class="cls-19" d="M137.05,77.3l.24-.63c.13-.41.41-1,.62-1.71a25.47,25.47,0,0,0,1.22-5.81,18.85,18.85,0,0,0-.44-5.87,14,14,0,0,0-.55-1.71c-.16-.39-.26-.59-.26-.59a6.41,6.41,0,0,1,.4.53,9.13,9.13,0,0,1,.88,1.63,13.16,13.16,0,0,1,1,6.09,15.63,15.63,0,0,1-1.75,5.9,14.55,14.55,0,0,1-.94,1.6Z"/><path class="cls-19" d="M133.87,75.54l.24-.63c.14-.41.41-1,.62-1.71A24.94,24.94,0,0,0,136,67.39a18.55,18.55,0,0,0-.44-5.87,14,14,0,0,0-.55-1.71c-.16-.39-.26-.59-.26-.59a4.43,4.43,0,0,1,.4.53,9.13,9.13,0,0,1,.88,1.63,13,13,0,0,1,1,6.09,15.83,15.83,0,0,1-1.74,5.9,16.07,16.07,0,0,1-.95,1.6Z"/><path class="cls-8" d="M120.5,71S113.71,87.78,123,82.89"/><path class="cls-19" d="M123.15,83.11l-.61.33a6.37,6.37,0,0,1-1.82.67,2.76,2.76,0,0,1-1.46-.09A2.23,2.23,0,0,1,118,82.79a7,7,0,0,1-.31-3.55,26.41,26.41,0,0,1,1.58-6c.55-1.47,1-2.35,1-2.35l-.51,2.5c-.31,1.54-.78,3.64-1.06,5.94a7.73,7.73,0,0,0,.08,3.1,1.65,1.65,0,0,0,.74.94,2.35,2.35,0,0,0,1.14.22,7.71,7.71,0,0,0,1.82-.32Z"/><path class="cls-8" d="M141.2,80.77s-.64,3,.6,4.71-4,4.94-5.71,3.15"/><path class="cls-19" d="M136.26,88.47a3.71,3.71,0,0,0,.36.21,2.31,2.31,0,0,0,1.18.1,5.75,5.75,0,0,0,1.76-.66,5.14,5.14,0,0,0,1.7-1.45,1,1,0,0,0,.2-.78,1.56,1.56,0,0,0-.07-.17l-.18-.3a4.46,4.46,0,0,1-.26-.61,6.07,6.07,0,0,1-.28-2.16,7.57,7.57,0,0,1,.29-1.93,13.43,13.43,0,0,0,.21,1.92,7,7,0,0,0,.57,1.87A2.68,2.68,0,0,0,142,85l.15.21a3.24,3.24,0,0,1,.21.38,1.86,1.86,0,0,1-.27,1.65,5.33,5.33,0,0,1-4.24,2,2.25,2.25,0,0,1-1.3-.45A2.42,2.42,0,0,1,136.26,88.47Z"/><path class="cls-20" d="M115.15,129a11.57,11.57,0,0,1,.35-1.4c.24-.9.59-2.19,1.13-3.76,1-3.15,2.67-7.44,4.68-12.08s4-8.78,5.45-11.75,2.42-4.79,2.42-4.79-3.29,7.54-7.33,16.77c-2,4.64-3.77,8.85-4.94,12-.6,1.54-1,2.81-1.33,3.68S115.15,129,115.15,129Z"/><path class="cls-20" d="M118.34,102.9a1.83,1.83,0,0,0,1.1.72,1.68,1.68,0,0,0,1.29-.26,1.61,1.61,0,0,0,0-2.66,1.68,1.68,0,0,0-1.29-.26,1.83,1.83,0,0,0-1.1.72,1.74,1.74,0,0,1,1-1,1.93,1.93,0,0,1,1.63.11,2,2,0,0,1,0,3.52,1.9,1.9,0,0,1-1.63.11A1.71,1.71,0,0,1,118.34,102.9Z"/><path class="cls-20" d="M114.6,109.38a1.87,1.87,0,0,0,1,.9,1.66,1.66,0,0,0,1.31,0,1.61,1.61,0,0,0,.49-2.62,1.7,1.7,0,0,0-1.22-.49,1.85,1.85,0,0,0-1.21.5,1.8,1.8,0,0,1,1.18-.79,1.92,1.92,0,0,1,1.58.41,2,2,0,0,1,.7,1.92,2,2,0,0,1-1.34,1.54,2,2,0,0,1-1.63-.19A1.75,1.75,0,0,1,114.6,109.38Z"/><path class="cls-20" d="M111.63,116.73a1.9,1.9,0,0,0,1,.91,1.7,1.7,0,0,0,1.31,0,1.61,1.61,0,0,0,.49-2.62,1.68,1.68,0,0,0-1.22-.49,1.85,1.85,0,0,0-1.21.5,1.8,1.8,0,0,1,1.18-.79,2,2,0,0,1,1.59.41,2,2,0,0,1-.65,3.46,1.93,1.93,0,0,1-1.63-.19A1.75,1.75,0,0,1,111.63,116.73Z"/><path class="cls-19" d="M123.27,56.71l3.63-1.2c1.16-.39,2.55-.87,4.14-1.45.79-.29,1.63-.6,2.49-1,.43-.18.87-.37,1.3-.59a5.33,5.33,0,0,0,.63-.33l.29-.19.54-.47c.21.16.49.37.68.54l.41.35c.29.25.57.54.89.84a25.2,25.2,0,0,1,1.88,2.12,22.11,22.11,0,0,1,3.6,6.54,12.82,12.82,0,0,1,.47,1.62,11.32,11.32,0,0,1,.31,1.56l.2,1.47,0,1.37a15.17,15.17,0,0,1-.14,2.34,9.8,9.8,0,0,1-.29,1.74L144,73.47l.18-1.49a10.55,10.55,0,0,0,.14-1.74,16.57,16.57,0,0,0-.05-2.3l-.12-1.32-.28-1.41a10.87,10.87,0,0,0-.38-1.49,12,12,0,0,0-.52-1.53,23.91,23.91,0,0,0-3.59-6.2c-.52-.67-1.07-1.3-1.63-1.89-.28-.3-.57-.58-.85-.85l-.43-.4-.11-.1,0,0,0,0,0,0-.33.2a5,5,0,0,1-.7.34c-.45.22-.9.38-1.34.55-.88.32-1.73.6-2.54.84-1.61.49-3.05.87-4.26,1.17C124.71,56.43,123.27,56.71,123.27,56.71Z"/><path class="cls-1" d="M115.31,86.13s.27,1.22,4.09.23,6.43-2.75,7.9.39c0,.51,3,2,9.32,1.92,0,0,.14.53,1.37.66.69.07-9.44,1.15-11.36-.93s-4.39-1.22-5.06-1.11S116.8,88.93,115.31,86.13Z"/><path id="aile" class="cls-3" d="M64.11,116.41s-9.06-.27-14.37,4c-1.66,2.91,2.8,5.31,4.62,6.11s9.3,1.21,14.48.93S76,87.78,82.18,87c-1,.55-14.4,4.59-17.88,7.36-1.87,1.88-.81,2.82,0,2.86a37.65,37.65,0,0,0,7.78.8c-1.5.49-9.39,1.43-11.62,4.9-1.43,2.81,3.65,2.81,4.19,2.8-1.1.44-7.19,2.1-10.17,4.71C52.4,114.17,59.67,116,64.11,116.41Z"/><path class="cls-21" d="M88.58,84.23s.48-.15,1.37-.38a34.58,34.58,0,0,1,3.8-.73A25,25,0,0,1,99.58,83a15,15,0,0,1,3.48.79,9,9,0,0,1,3.43,2.12,7.3,7.3,0,0,1,2,3.62,4.61,4.61,0,0,1,.17,1l.09.94c0,.62,0,1.22-.11,1.79a19.78,19.78,0,0,1-1.83,5.6,29.11,29.11,0,0,1-2,3.34l-.8,1.16.47-1.33c.34-.83.73-2.08,1.2-3.6a24.87,24.87,0,0,0,1-5.34,7.16,7.16,0,0,0-1.86-5.47,7.67,7.67,0,0,0-2.59-1.68,16.44,16.44,0,0,0-3-.93,36,36,0,0,0-5.46-.66c-1.6-.08-2.9-.08-3.81-.08Z"/><path class="cls-22" d="M71.05,124.88l.12-.35c.07-.24.21-.57.33-1a37.73,37.73,0,0,0,.91-3.81c.66-3.23,1.27-7.74,1.91-12.75a58.73,58.73,0,0,1,3-12.73A26.13,26.13,0,0,1,79,90.6l.58-.91a2.37,2.37,0,0,1,.22-.31,1.79,1.79,0,0,0-.15.34l-.4,1a38.2,38.2,0,0,0-1.06,3.76c-.75,3.21-1.43,7.7-2.08,12.7a66.42,66.42,0,0,1-2.8,12.76,29.55,29.55,0,0,1-1.51,3.67c-.2.43-.4.73-.52,1Z"/><path class="cls-1" d="M114.92,79.48s3.75-14.73,8.41-22.5C123.33,57,114,69.36,114.92,79.48Z"/><path class="cls-1" d="M104.83,51.91l.84.54.29-.68A1.17,1.17,0,0,0,104.83,51.91Z"/><path class="cls-1" d="M54.35,112.62s.49,2.49,9.76,3.79C53.8,116.62,54.35,112.62,54.35,112.62Z"/><path class="cls-1" d="M60.41,104.42s.17,1.11,4.27,1.27C64.68,105.69,59.35,107.06,60.41,104.42Z"/><path class="cls-1" d="M63.37,96.6s-.29.94,8.74,1.39C72.11,98,63.37,99.36,63.37,96.6Z"/><path class="cls-1" d="M49.37,122s.31,2.83,6,4.82c0,0,13.37,1.43,14.33.25,0,0,1.53,2.16-12.45.84C46.42,126.31,49.37,122,49.37,122Z"/><path class="cls-23" d="M90.36,119.11a11.77,11.77,0,0,1-2.42,2,32.32,32.32,0,0,1-6.81,3.3,52.43,52.43,0,0,1-7.25,2c-1.89.39-3.08.54-3.08.54l2.91-1.11,7-2.57c2.74-1,5.2-1.9,6.92-2.7A16.26,16.26,0,0,0,90.36,119.11Z"/><path class="cls-1" d="M64.55,138.18s7.54,2.17,8.73,2l-4.08.38c-6.85.61-20.49,1.69-26.83,1.13,0,0,9.75-1.48,11.66-1.69C62.18,138.18,64.55,138.18,64.55,138.18Z"/><path class="cls-24" d="M137.29,89.35S150,86.62,154.63,73.43a26.76,26.76,0,0,0,14,24c-1.74,1.41-37.93,12.07-43.81,19.46C118.54,132.78,137.29,89.35,137.29,89.35Z"/><path class="cls-1" d="M145.39,85.58s-5.56,3.37-8.1,3.77c0,0-1.93,14-8.53,21.11C128.76,110.46,140.42,91.17,145.39,85.58Z"/><path class="cls-1" d="M148.51,83a18,18,0,0,1-4.43,3.32c-2,.86-4.69,6.9-4.69,6.9l3.32-3.94s7.46-6.24,8.86-9.85S148.51,83,148.51,83Z"/><path class="cls-1" d="M154.63,73.43a10.56,10.56,0,0,0,.09,2.74,11,11,0,0,0,.47-1.94Z"/><path class="cls-1" d="M168.63,97.42s-1-6-2.3-6.28c-.52-.12-3.44,1.91-2.67,2.82C165,95.52,168.63,97.42,168.63,97.42Z"/><polygon class="cls-13" points="175.04 77.03 174.6 77.42 174.3 77.22 175.04 77.03"/><polygon class="cls-13" points="169.67 69.56 170.14 70.12 170.99 69.22 169.67 69.56"/><path class="cls-13" d="M146.31,34.92s3.2,8.21,6.23,11.49l-1.09.32s-5.34-5.91-5.92-11.14C145.93,35.62,146.31,34.92,146.31,34.92Z"/><path class="cls-13" d="M162,42.3s-6.83-13.42-7.25-13.44S160.91,38.18,162,42.3Z"/><path class="cls-13" d="M157.17,28.81s5.61,7,6.67,11.37l.87-.74s-2.38-8.3-6.42-11.68C158.29,29.05,157.17,28.81,157.17,28.81Z"/><path class="cls-13" d="M143.61,35.76a27.5,27.5,0,0,0,6.66,12.09A21.3,21.3,0,0,1,143.61,35.76Z"/><path class="cls-13" d="M166.54,38.77a27.48,27.48,0,0,0-6.85-12A21.28,21.28,0,0,1,166.54,38.77Z"/><path class="cls-8" d="M120.5,4.79l-.81-3.1L111.58,0s-2,.08-2.08,1.17-3-.55-3-.55-2.21,1-2,2.72,7,1.48,7,1.48,5.52-.63,6.6.61,1.45-.87,1.45-.87L119,7"/><path class="cls-8" d="M98.16,13.43a3.58,3.58,0,0,1,.1-3.71c.1-.2,1-1.19,1-1.19h.48a4.11,4.11,0,0,1,.37-3.86c1.28-2.06,7.15-.25,7.15-.25l.45,4-1,6.31Z"/><circle class="cls-7" cx="107.78" cy="26.8" r="2.74"/><path class="cls-8" d="M98.54,26.21l8,3.06a3,3,0,0,1-1.35-1.84,2.7,2.7,0,0,1,1.18-3,4.24,4.24,0,0,1,1.42-.35l-8.11-1.89S96.63,23.48,98.54,26.21Z"/><path class="cls-8" d="M108.64,24.35A3,3,0,0,1,110,28.14a2.7,2.7,0,0,1-3.32.89S110.54,28,108.64,24.35Z"/><path class="cls-7" d="M99.74,22.17,108,24.11s-1.85.15-2.38,1.35L98.5,23.08A3.3,3.3,0,0,1,99.74,22.17Z"/><path class="cls-7" d="M98.07,25.32s.29.82.47.89l8.13,3.09Z"/><circle class="cls-7" cx="108.23" cy="21.47" r="2.74"/><path class="cls-8" d="M99,22.11l8.38,2a3,3,0,0,1-1.58-1.64,2.72,2.72,0,0,1,.76-3.16,4.19,4.19,0,0,1,1.36-.52L99.63,18S96.74,19.66,99,22.11Z"/><path class="cls-8" d="M108.76,18.93a3,3,0,0,1,1.81,3.59,2.7,2.7,0,0,1-3.17,1.32S111.12,22.29,108.76,18.93Z"/><path class="cls-7" d="M99.65,18l8.41.84s-1.82.39-2.19,1.65L98.54,19A3.35,3.35,0,0,1,99.65,18Z"/><path class="cls-7" d="M98.41,21.29s.4.78.58.82l8.47,2Z"/><circle class="cls-7" cx="108.09" cy="16.42" r="2.74"/><path class="cls-8" d="M99,18.1l8.54,1a3.06,3.06,0,0,1-1.76-1.45,2.73,2.73,0,0,1,.41-3.23,4.21,4.21,0,0,1,1.29-.68l-8.33.15S96.47,15.92,99,18.1Z"/><path class="cls-8" d="M108.33,13.84a3,3,0,0,1,2.2,3.35,2.7,2.7,0,0,1-3,1.67S111.05,16.9,108.33,13.84Z"/><path class="cls-7" d="M99.16,13.89l8.45-.12s-1.76.59-2,1.89l-7.44-.58A3.31,3.31,0,0,1,99.16,13.89Z"/><path class="cls-7" d="M99.23,8.53l8.45-.13s-1.76.6-2,1.9l-7.44-.58A3.31,3.31,0,0,1,99.23,8.53Z"/><path class="cls-7" d="M101.05,3.47l8.45-.13s-1.76.6-2,1.9l-7.44-.58A3.31,3.31,0,0,1,101.05,3.47Z"/><path class="cls-7" d="M106.48.62l8,.22s-1.71.47-2,1.63l-7.25-.93A6.87,6.87,0,0,1,106.48.62Z"/><path class="cls-7" d="M98.31,17.35s.49.73.68.75l8.64,1Z"/><circle class="cls-7" cx="107.23" cy="11.14" r="2.74"/><path class="cls-8" d="M107.12,8.55a3,3,0,0,1,2.63,3A2.71,2.71,0,0,1,107,13.64S110.22,11.22,107.12,8.55Z"/><path class="cls-7" d="M98.16,13.43s.59.65.77.65l8.7-.14Z"/><path class="cls-7" d="M99.44,7.62s.08.88.27.9a76.36,76.36,0,0,0,9.16-.12Z"/><circle class="cls-7" cx="109.16" cy="6.08" r="2.74"/><path class="cls-8" d="M109,3.54a3,3,0,0,1,2.63,3,2.72,2.72,0,0,1-2.75,2.06S112.06,6.21,109,3.54Z"/><circle class="cls-7" cx="113.91" cy="3.54" r="2.74"/><path class="cls-8" d="M113.7,1a3,3,0,0,1,2.63,3,2.69,2.69,0,0,1-2.75,2.06S116.81,3.67,113.7,1Z"/><circle class="cls-7" cx="119.37" cy="4.41" r="2.74"/><path class="cls-8" d="M119.16,1.86a3,3,0,0,1,2.63,3A2.71,2.71,0,0,1,119,7S122.27,4.53,119.16,1.86Z"/><path class="cls-7" d="M104.5,2.8s-.21.84,0,.94,4.92-.32,4.92-.32l2.06,1.09-.17-1Z"/><path class="cls-7" d="M116.11,2.09l-.56-.75a4.41,4.41,0,0,0,2.13.84c1,0-.17,3.85-.17,3.85a7.09,7.09,0,0,0-2-.78l.5-.31.35-.56.16-.49,0-.41L116.48,3Z"/><path class="cls-8" d="M117.59,2.77a2.42,2.42,0,0,0-.07,3.31A3.21,3.21,0,0,1,117.59,2.77Z"/><polygon class="cls-7" points="124.11 5.79 122.1 4.63 121.57 5.79 120.93 6.55 119.52 7.14 120.5 8.4 121.3 6.39 122.01 6.02 124.11 5.79"/><path class="cls-7" d="M123.77,11.14l-.84,1s-.77-1.3-.81-1.3l.64.19Z"/><polygon class="cls-7" points="125.8 9.98 126.88 11.14 125.16 10.94 125.16 10.47 125.8 9.98"/><polygon class="cls-7" points="127.17 14.82 128.62 16.07 127.17 15.97 126.61 15.5 127.17 14.82"/><path class="cls-8" d="M122.5,6.05s1.17-.84,2,0A2.69,2.69,0,0,0,122.5,6.05Z"/><path class="cls-8" d="M124.88,11.17s1.17-.83,2,0A2.7,2.7,0,0,0,124.88,11.17Z"/><path class="cls-8" d="M126.25,15.82s1.16-.83,2,0A2.68,2.68,0,0,0,126.25,15.82Z"/><path class="cls-2" d="M99.5,26.6l7.17,2.7a5.08,5.08,0,0,0,1.53.21l0,1.13S100.46,27.65,99.5,26.6Z"/></g></g></svg>