<svg xmlns="http://www.w3.org/2000/svg" viewBox="0 0 309 324.3"><defs><style>.cls-1{fill:#fefefe;}</style></defs><title>Fichier 2</title><g id="Calque_2" data-name="Calque 2"><g id="Calque_1-2" data-name="Calque 1"><path class="cls-1" d="M309,36V245c-1.14,15.74-10.3,25.38-24.08,31.36a39.94,39.94,0,0,1-19.61,2.84c-8.45-.76-15.22,1.66-21.9,7.12-14.95,12.23-30.47,23.78-45.89,35.42-1.68,1.27-3.36,4.23-6.1,1.33.69-5,3.89-8.77,6.17-12.95,4.62-8.48,9.58-16.76,14.3-25.18,2.84-5.07,2.61-5.46-3.12-5.46q-40.46,0-80.91,0c-29.14,0-58.27.12-87.4-.06-15.53-.09-28-6.17-36.47-19.71-2.9-4.62-2.9-9.74-4-14.7V36c1.05-1.6.28-3.39.52-5.07C-.16,17.63,16.7,0,31.17.51A2.33,2.33,0,0,0,33,0H276c13.48,1.28,23.2,8.05,29.59,19.94a24.14,24.14,0,0,1,2.89,11C308.72,32.59,308,34.39,309,36Z"/></g></g></svg>